# xmcd
#
# Track frame offsets:
#	150
#	19081
#	35122
#	52631
#	83421
#	96621
#	113415
#	127689
#	140245
#	153759
#
# Disc length: 2381 seconds
#
# Revision: 1
# Processed by: cddbd v1.5.2PL0 Copyright (c) Steve Scherf et al.
# Submitted via: audiograbber 1.83.01
#
DISCID=71094b0a
DTITLE=Alabama - Mountain Music
DYEAR=1982
DGENRE=Country
TTITLE0=Mountain Music
TTITLE1=Close Enough to Perfect
TTITLE2=Words at Twenty Paces
TTITLE3=Changes Comin' On
TTITLE4=Green River
TTITLE5=Take Me Down
TTITLE6=You Turn Me On
TTITLE7=Never Be One
TTITLE8=Lovin' You Is Killin' Me
TTITLE9=Gonna Have a Party (Live)
EXTD=
EXTT0=
EXTT1=
EXTT2=
EXTT3=
EXTT4=
EXTT5=
EXTT6=
EXTT7=
EXTT8=
EXTT9=
PLAYORDER=
